HIERARCHY
ROOT newVegas:Hips
{
	OFFSET 0.000000 96.479958 0.000000
	CHANNELS 6 Xposition Yposition Zposition Xrotation Yrotation Zrotation
	JOINT newVegas:Pelvis
	{
		OFFSET 0.000000 0.000000 0.000000
		CHANNELS 3 Xrotation Yrotation Zrotation
		JOINT newVegas:LeftUpLeg
		{
			OFFSET 18.735201 -5.666702 -4.541200
			CHANNELS 3 Xrotation Yrotation Zrotation
			JOINT newVegas:LeftLeg
			{
				OFFSET -0.021200 -31.938179 0.493100
				CHANNELS 3 Xrotation Yrotation Zrotation
				JOINT newVegas:LeftFoot
				{
					OFFSET 0.021200 -31.938179 -4.336299
					CHANNELS 3 Xrotation Yrotation Zrotation
					JOINT newVegas:LeftToeBase
					{
						OFFSET 0.943001 -26.722000 15.023500
						CHANNELS 3 Xrotation Yrotation Zrotation
						End Site
						{
							OFFSET 0.000000 30.670183 0.000000
						}
					}
				}
				JOINT newVegas:Left_PantLeg
				{
					OFFSET 0.663870 -9.044666 -1.108900
					CHANNELS 3 Xrotation Yrotation Zrotation
					End Site
					{
						OFFSET 1.415995 20.635357 0.000000
					}
				}
			}
		}
		JOINT newVegas:RightUpLeg
		{
			OFFSET -18.735201 -5.666702 -4.541200
			CHANNELS 3 Xrotation Yrotation Zrotation
			JOINT newVegas:RightLeg
			{
				OFFSET 0.018946 -31.938133 0.493100
				CHANNELS 3 Xrotation Yrotation Zrotation
				JOINT newVegas:RightFoot
				{
					OFFSET -0.018946 -31.938126 -4.336299
					CHANNELS 3 Xrotation Yrotation Zrotation
					JOINT newVegas:RightToeBase
					{
						OFFSET -0.943001 -26.722004 15.023500
						CHANNELS 3 Xrotation Yrotation Zrotation
						End Site
						{
							OFFSET 0.000000 30.670187 0.000000
						}
					}
				}
				JOINT newVegas:Right_PantLeg
				{
					OFFSET -0.661674 -9.044716 -1.108900
					CHANNELS 3 Xrotation Yrotation Zrotation
					End Site
					{
						OFFSET -1.415958 20.635269 0.000000
					}
				}
			}
		}
	}
	JOINT newVegas:Spine
	{
		OFFSET 0.000000 10.199997 -0.299500
		CHANNELS 3 Xrotation Yrotation Zrotation
		JOINT newVegas:Spine1
		{
			OFFSET 0.000000 11.900002 -1.516600
			CHANNELS 3 Xrotation Yrotation Zrotation
			JOINT newVegas:Spine2
			{
				OFFSET 0.000000 13.600006 -2.842500
				CHANNELS 3 Xrotation Yrotation Zrotation
				JOINT newVegas:Neck
				{
					OFFSET 0.000000 9.624100 -2.890100
					CHANNELS 3 Xrotation Yrotation Zrotation
					JOINT newVegas:Head
					{
						OFFSET 0.000000 14.068802 -1.351900
						CHANNELS 3 Xrotation Yrotation Zrotation
						JOINT newVegas:Hair_Back
						{
							OFFSET 0.000000 3.231903 -17.524799
							CHANNELS 3 Xrotation Yrotation Zrotation
							End Site
							{
								OFFSET 0.000000 19.849884 0.000000
							}
						}
						JOINT newVegas:Hair_Front
						{
							OFFSET 0.000000 31.260406 4.573800
							CHANNELS 3 Xrotation Yrotation Zrotation
							JOINT newVegas:Hair_Front1
							{
								OFFSET 0.000000 2.284103 11.993300
								CHANNELS 3 Xrotation Yrotation Zrotation
								JOINT newVegas:Hair_Front2
								{
									OFFSET 0.000000 2.284103 11.993300
									CHANNELS 3 Xrotation Yrotation Zrotation
									End Site
									{
										OFFSET 0.000000 12.208862 0.000000
									}
								}
							}
						}
						JOINT newVegas:Jowel
						{
							OFFSET 0.000000 -7.458206 6.864100
							CHANNELS 3 Xrotation Yrotation Zrotation
							End Site
							{
								OFFSET 0.000000 19.849884 0.000000
							}
						}
					}
				}
				JOINT newVegas:LeftShoulder
				{
					OFFSET 15.263000 10.923401 -0.547700
					CHANNELS 3 Xrotation Yrotation Zrotation
					JOINT newVegas:LeftArm
					{
						OFFSET 25.438599 -2.830597 -13.032500
						CHANNELS 3 Xrotation Yrotation Zrotation
						JOINT newVegas:LeftForeArm
						{
							OFFSET 29.960503 0.000000 0.000000
							CHANNELS 3 Xrotation Yrotation Zrotation
							JOINT newVegas:LeftHand
							{
								OFFSET 27.849251 0.000000 0.000000
								CHANNELS 3 Xrotation Yrotation Zrotation
								JOINT newVegas:LeftHandThumb1
								{
									OFFSET 4.487587 -3.305161 6.305391
									CHANNELS 3 Xrotation Yrotation Zrotation
									JOINT newVegas:LeftHandThumb2
									{
										OFFSET 5.480453 -3.164139 3.164143
										CHANNELS 3 Xrotation Yrotation Zrotation
										JOINT newVegas:LeftHandThumb3
										{
											OFFSET 5.159721 -2.978973 2.978967
											CHANNELS 3 Xrotation Yrotation Zrotation
											End Site
											{
												OFFSET 2.494507 5.926697 1.738678
											}
										}
									}
								}
								JOINT newVegas:LeftHandIndex1
								{
									OFFSET 18.578728 -0.527832 5.208049
									CHANNELS 3 Xrotation Yrotation Zrotation
									JOINT newVegas:LeftHandIndex2
									{
										OFFSET 3.192009 0.000000 0.000000
										CHANNELS 3 Xrotation Yrotation Zrotation
										JOINT newVegas:LeftHandIndex3
										{
											OFFSET 3.835129 0.000000 0.000000
											CHANNELS 3 Xrotation Yrotation Zrotation
											End Site
											{
												OFFSET -0.034599 3.816971 0.371180
											}
										}
									}
								}
								JOINT newVegas:LeftHandMiddle1
								{
									OFFSET 18.476105 0.000000 0.000000
									CHANNELS 3 Xrotation Yrotation Zrotation
									JOINT newVegas:LeftHandMiddle2
									{
										OFFSET 3.324875 0.000000 0.000000
										CHANNELS 3 Xrotation Yrotation Zrotation
										JOINT newVegas:LeftHandMiddle3
										{
											OFFSET 4.596550 0.000000 0.000000
											CHANNELS 3 Xrotation Yrotation Zrotation
											End Site
											{
												OFFSET 0.057701 4.578827 0.399218
											}
										}
									}
								}
								JOINT newVegas:LeftHandRing1
								{
									OFFSET 17.732719 0.121887 -4.201567
									CHANNELS 3 Xrotation Yrotation Zrotation
									JOINT newVegas:LeftHandRing2
									{
										OFFSET 2.733170 0.000000 0.000000
										CHANNELS 3 Xrotation Yrotation Zrotation
										JOINT newVegas:LeftHandRing3
										{
											OFFSET 3.178268 0.000000 0.000000
											CHANNELS 3 Xrotation Yrotation Zrotation
											End Site
											{
												OFFSET 0.119102 3.170624 0.185394
											}
										}
									}
								}
								JOINT newVegas:LeftHandPinky1
								{
									OFFSET 15.989624 -0.606689 -7.535461
									CHANNELS 3 Xrotation Yrotation Zrotation
									JOINT newVegas:LeftHandPinky2
									{
										OFFSET 2.538986 0.000000 0.000000
										CHANNELS 3 Xrotation Yrotation Zrotation
										JOINT newVegas:LeftHandPinky3
										{
											OFFSET 2.593102 0.000000 0.000000
											CHANNELS 3 Xrotation Yrotation Zrotation
											End Site
											{
												OFFSET -0.150902 2.584198 0.152708
											}
										}
									}
								}
							}
							JOINT newVegas:Left_Sleeve
							{
								OFFSET 0.267448 -0.649796 0.577675
								CHANNELS 3 Xrotation Yrotation Zrotation
								End Site
								{
									OFFSET 0.000000 15.991241 0.000000
								}
							}
							JOINT newVegas:Left_CapeC
							{
								OFFSET 15.715958 -8.608795 -6.935905
								CHANNELS 3 Xrotation Yrotation Zrotation
								JOINT newVegas:Left_CapeC1
								{
									OFFSET 0.000000 -8.688499 0.000000
									CHANNELS 3 Xrotation Yrotation Zrotation
									End Site
									{
										OFFSET 0.000000 8.688499 0.000000
									}
								}
							}
						}
						JOINT newVegas:Left_CapeB
						{
							OFFSET 26.118385 -8.608795 -7.079235
							CHANNELS 3 Xrotation Yrotation Zrotation
							JOINT newVegas:Left_CapeB1
							{
								OFFSET 0.000000 -8.688499 0.000000
								CHANNELS 3 Xrotation Yrotation Zrotation
								End Site
								{
									OFFSET 0.000000 8.688499 0.000000
								}
							}
						}
						JOINT newVegas:Left_CapeA
						{
							OFFSET 5.115639 -8.608795 -10.395809
							CHANNELS 3 Xrotation Yrotation Zrotation
							JOINT newVegas:Left_CapeA1
							{
								OFFSET 0.000000 -8.688499 0.000000
								CHANNELS 3 Xrotation Yrotation Zrotation
								End Site
								{
									OFFSET 0.000000 8.688499 0.000000
								}
							}
						}
					}
				}
				JOINT newVegas:RightShoulder
				{
					OFFSET -15.263000 10.923401 -0.547700
					CHANNELS 3 Xrotation Yrotation Zrotation
					JOINT newVegas:RightArm
					{
						OFFSET -25.438599 -2.830597 -13.032500
						CHANNELS 3 Xrotation Yrotation Zrotation
						JOINT newVegas:RightForeArm
						{
							OFFSET -29.960503 0.000000 0.000000
							CHANNELS 3 Xrotation Yrotation Zrotation
							JOINT newVegas:RightHand
							{
								OFFSET -27.849251 0.000000 0.000000
								CHANNELS 3 Xrotation Yrotation Zrotation
								JOINT newVegas:RightHandThumb1
								{
									OFFSET -4.487587 -3.305161 6.305391
									CHANNELS 3 Xrotation Yrotation Zrotation
									JOINT newVegas:RightHandThumb2
									{
										OFFSET -5.480453 -3.164139 3.164143
										CHANNELS 3 Xrotation Yrotation Zrotation
										JOINT newVegas:RightHandThumb3
										{
											OFFSET -5.159721 -2.978973 2.978967
											CHANNELS 3 Xrotation Yrotation Zrotation
											End Site
											{
												OFFSET -2.494507 5.926697 1.738678
											}
										}
									}
								}
								JOINT newVegas:RightHandIndex1
								{
									OFFSET -18.578728 -0.527832 5.208049
									CHANNELS 3 Xrotation Yrotation Zrotation
									JOINT newVegas:RightHandIndex2
									{
										OFFSET -3.192009 0.000000 0.000000
										CHANNELS 3 Xrotation Yrotation Zrotation
										JOINT newVegas:RightHandIndex3
										{
											OFFSET -3.835129 0.000000 0.000000
											CHANNELS 3 Xrotation Yrotation Zrotation
											End Site
											{
												OFFSET 0.034599 3.816971 0.371180
											}
										}
									}
								}
								JOINT newVegas:RightHandMiddle1
								{
									OFFSET -18.476105 0.000000 0.000000
									CHANNELS 3 Xrotation Yrotation Zrotation
									JOINT newVegas:RightHandMiddle2
									{
										OFFSET -3.324875 0.000000 0.000000
										CHANNELS 3 Xrotation Yrotation Zrotation
										JOINT newVegas:RightHandMiddle3
										{
											OFFSET -4.596550 0.000000 0.000000
											CHANNELS 3 Xrotation Yrotation Zrotation
											End Site
											{
												OFFSET -0.057701 4.578827 0.399218
											}
										}
									}
								}
								JOINT newVegas:RightHandRing1
								{
									OFFSET -17.732719 0.121887 -4.201567
									CHANNELS 3 Xrotation Yrotation Zrotation
									JOINT newVegas:RightHandRing2
									{
										OFFSET -2.733170 0.000000 0.000000
										CHANNELS 3 Xrotation Yrotation Zrotation
										JOINT newVegas:RightHandRing3
										{
											OFFSET -3.178268 0.000000 0.000000
											CHANNELS 3 Xrotation Yrotation Zrotation
											End Site
											{
												OFFSET -0.119102 3.170624 0.185394
											}
										}
									}
								}
								JOINT newVegas:RightHandPinky1
								{
									OFFSET -15.989624 -0.606689 -7.535461
									CHANNELS 3 Xrotation Yrotation Zrotation
									JOINT newVegas:RightHandPinky2
									{
										OFFSET -2.538986 0.000000 0.000000
										CHANNELS 3 Xrotation Yrotation Zrotation
										JOINT newVegas:RightHandPinky3
										{
											OFFSET -2.593102 0.000000 0.000000
											CHANNELS 3 Xrotation Yrotation Zrotation
											End Site
											{
												OFFSET 0.150902 2.584198 0.152708
											}
										}
									}
								}
							}
							JOINT newVegas:Right_CapeC
							{
								OFFSET -15.715958 -8.608795 -6.935905
								CHANNELS 3 Xrotation Yrotation Zrotation
								JOINT newVegas:Right_CapeC1
								{
									OFFSET 0.000000 -8.688499 0.000000
									CHANNELS 3 Xrotation Yrotation Zrotation
									End Site
									{
										OFFSET 0.000000 8.688499 0.000000
									}
								}
							}
							JOINT newVegas:Right_Sleeve
							{
								OFFSET -0.267448 -0.649994 0.577675
								CHANNELS 3 Xrotation Yrotation Zrotation
								End Site
								{
									OFFSET 0.000000 15.991302 0.000000
								}
							}
						}
						JOINT newVegas:Right_CapeA
						{
							OFFSET -5.115540 -8.608795 -10.395824
							CHANNELS 3 Xrotation Yrotation Zrotation
							JOINT newVegas:Right_CapeA1
							{
								OFFSET 0.000000 -8.688499 0.000000
								CHANNELS 3 Xrotation Yrotation Zrotation
								End Site
								{
									OFFSET 0.000000 8.688499 0.000000
								}
							}
						}
						JOINT newVegas:Right_CapeB
						{
							OFFSET -26.118187 -8.608795 -7.079266
							CHANNELS 3 Xrotation Yrotation Zrotation
							JOINT newVegas:Right_CapeB1
							{
								OFFSET 0.000000 -8.688499 0.000000
								CHANNELS 3 Xrotation Yrotation Zrotation
								End Site
								{
									OFFSET 0.000000 8.688499 0.000000
								}
							}
						}
					}
				}
				JOINT newVegas:Left_Collar
				{
					OFFSET 18.625099 8.655502 8.828100
					CHANNELS 3 Xrotation Yrotation Zrotation
					JOINT newVegas:Left_Collar1
					{
						OFFSET 14.783401 10.540405 -1.259500
						CHANNELS 3 Xrotation Yrotation Zrotation
						End Site
						{
							OFFSET 0.000000 18.199875 0.000000
						}
					}
				}
				JOINT newVegas:Collar_Back
				{
					OFFSET 0.000000 15.630707 -20.132601
					CHANNELS 3 Xrotation Yrotation Zrotation
					End Site
					{
						OFFSET 0.000000 22.523010 0.000000
					}
				}
				JOINT newVegas:Left_Peck
				{
					OFFSET 17.239599 -5.132599 25.482599
					CHANNELS 3 Xrotation Yrotation Zrotation
					End Site
					{
						OFFSET 0.000000 22.523010 0.000000
					}
				}
				JOINT newVegas:Right_Peck
				{
					OFFSET -17.239599 -5.132202 25.482599
					CHANNELS 3 Xrotation Yrotation Zrotation
					End Site
					{
						OFFSET 0.000000 22.523010 0.000000
					}
				}
				JOINT newVegas:Right_Collar
				{
					OFFSET -18.625099 8.655792 8.828100
					CHANNELS 3 Xrotation Yrotation Zrotation
					JOINT newVegas:Right_Collar1
					{
						OFFSET -14.783401 10.539993 -1.259500
						CHANNELS 3 Xrotation Yrotation Zrotation
						End Site
						{
							OFFSET 0.000000 18.199631 0.000000
						}
					}
				}
			}
		}
		JOINT newVegas:Belly
		{
			OFFSET 0.000000 -6.540398 9.014299
			CHANNELS 3 Xrotation Yrotation Zrotation
			End Site
			{
				OFFSET 0.000000 11.566666 0.000000
			}
		}
	}
	JOINT newVegas:ElvisFacialAnim_Joint
	{
		OFFSET 1.000000 -95.330101 -8.825800
		CHANNELS 3 Xrotation Yrotation Zrotation
		End Site
		{
			OFFSET 0.000000 35.315800 0.000000
		}
	}
}
MOTION
Frames: 4
Frame Time: 0.033333
5.767685 69.331406 2.568382 -29.463411 20.352651 24.028542 0.000001 0.000001 -0.000001 -7.800664 11.259697 21.139234 91.274700 -9.188820 -1.789290 3.140473 -1.759104 -22.179928 -0.000002 0.000002 -0.000004 0.000001 -0.000003 0.000001 -44.748172 -10.144633 12.485647 34.829392 5.383612 0.864314 46.001785 -11.229459 -20.713968 -0.000000 0.000002 -0.000000 -0.000001 0.000003 -0.000002 14.169832 -10.954846 3.521028 1.361568 -2.848194 -0.144733 1.380799 -2.822175 -0.114127 1.392131 0.770359 -0.087955 1.392131 0.770355 -0.087937 -0.000001 -0.000000 0.000001 1.392199 0.770354 -0.087948 1.392118 0.770352 -0.087950 0.000000 0.000002 0.000001 -0.000001 -0.000000 0.000001 0.821067 -3.691071 4.575238 29.787237 12.015548 -12.825471 -0.000010 -44.662272 -0.000011 25.368402 -4.474854 -31.948944 4.972946 -0.919243 4.455773 7.416823 13.559468 3.778484 0.000002 0.000001 -0.000004 0.332623 -2.971045 -1.456186 0.830592 3.008814 -30.858269 0.000002 -0.000005 0.000004 -0.686693 0.199380 -14.655433 0.595554 2.575499 -26.036346 -0.000003 -0.000001 -0.000001 0.933451 5.741944 -20.413996 0.491148 2.349922 -23.606377 0.000001 0.000001 0.000003 2.244624 16.205464 -22.664096 0.579231 2.541854 -25.670846 -0.000000 0.000000 0.000001 -0.000002 -0.000000 0.000000 -0.000002 -0.000000 0.000000 -0.000003 -0.000000 0.000000 -0.000000 0.000001 -0.000000 -0.000000 0.000000 0.000000 -0.000000 0.000001 -0.000000 0.000000 0.000000 -0.000000 -1.714894 -9.899174 -0.739523 25.814888 -24.343616 19.738816 0.000002 41.661760 0.000014 14.434835 15.700727 12.176899 3.998971 2.832329 -3.864426 7.802572 -15.416796 -4.481863 0.000002 -0.000002 -0.000001 0.387318 3.131538 0.644124 0.662457 -2.396005 30.906630 -0.000001 0.000001 0.000000 -0.709927 0.247554 13.910232 0.475071 -2.051018 26.079677 0.000003 0.000001 -0.000000 0.807597 -5.199866 19.769387 0.391805 -1.871426 23.646680 0.000002 -0.000003 -0.000000 1.997351 -15.634342 22.197594 0.462066 -2.024239 25.713762 -0.000000 -0.000000 0.000000 0.000000 -0.000001 0.000001 0.000001 -0.000000 0.000001 0.000000 -0.000001 -0.000000 -0.000001 -0.000003 -0.000000 -0.000001 -0.000002 -0.000000 -0.000001 -0.000003 -0.000000 -0.000001 -0.000002 0.000001 -0.000000 -0.000001 0.000000 -0.000000 -0.000001 0.000000 -0.000000 -0.000001 0.000000 -0.000000 -0.000001 0.000000 -0.000000 -0.000001 0.000000 -0.000000 -0.000001 0.000000 -0.000000 -0.000001 0.000000 -0.000000 0.000001 0.000001 0.000001 0.000001 -0.000001 
7.552582 71.950142 3.162712 -27.289225 22.663840 21.983614 0.000001 -0.000000 -0.000000 -6.502743 13.490482 16.420442 90.911594 -8.182237 -0.901637 -10.349039 0.442554 -15.182862 -0.000000 -0.000001 0.000001 -0.000001 0.000000 -0.000002 -46.768392 -9.635978 13.207667 43.009841 3.837219 -0.031461 36.367100 -9.733815 -19.057356 0.000000 0.000001 -0.000000 0.000001 0.000000 -0.000004 14.963075 -11.530357 3.171848 1.712850 -3.093104 0.053860 1.726410 -3.072934 0.114500 1.064932 0.617314 -0.188702 1.064932 0.617315 -0.188696 0.000000 -0.000000 -0.000002 1.064940 0.617325 -0.188704 1.064932 0.617312 -0.188701 -0.000000 0.000000 -0.000001 0.000000 -0.000000 -0.000000 1.802317 -2.129685 2.500307 26.883432 15.860169 -13.412740 0.000000 -54.002218 -0.000004 27.172854 -4.003210 -20.641400 3.174238 -3.581732 4.946382 7.760066 17.362959 4.140876 0.000001 0.000000 -0.000003 0.326255 -2.898785 -1.354872 0.614592 2.614066 -26.456813 -0.000000 0.000001 0.000000 -0.690609 0.330472 -15.224065 0.481670 2.328217 -23.374968 -0.000001 -0.000002 -0.000001 0.902768 5.687280 -20.019457 0.599644 2.583842 -26.127099 -0.000002 -0.000001 -0.000001 2.136869 15.999459 -22.225021 0.706151 2.790278 -28.398610 -0.000000 -0.000005 0.000002 0.000003 0.000001 -0.000001 0.000003 0.000001 -0.000001 0.000002 0.000001 -0.000001 0.000002 -0.000001 0.000000 0.000002 -0.000002 -0.000001 0.000002 -0.000001 0.000000 0.000002 -0.000002 0.000000 -0.803223 -7.623810 -0.336962 23.659528 -23.877095 28.003943 0.000005 48.139764 -0.000024 20.012459 5.040978 13.814775 1.525704 5.351523 -5.067435 8.384294 -23.499706 -5.148724 -0.000002 -0.000000 -0.000001 0.366707 2.629597 4.820940 0.780642 -2.582997 33.626845 0.000004 0.000001 -0.000000 -0.877715 -0.380158 19.154757 0.692571 -2.445553 31.619749 0.000001 0.000000 0.000002 0.988684 -5.407880 23.493257 0.966001 -2.841788 37.542562 0.000000 0.000002 0.000002 2.023454 -15.564794 25.870354 1.088244 -2.993909 39.943585 -0.000001 0.000002 -0.000003 -0.000000 -0.000001 -0.000002 -0.000000 -0.000002 0.000000 -0.000001 -0.000001 -0.000000 -0.000002 -0.000001 -0.000000 -0.000002 0.000000 -0.000000 -0.000002 -0.000001 -0.000000 -0.000002 -0.000000 0.000001 0.000000 0.000000 -0.000002 0.000000 0.000000 -0.000002 0.000000 0.000000 -0.000002 0.000000 0.000000 -0.000002 0.000000 0.000000 -0.000002 0.000000 0.000000 -0.000002 0.000000 0.000000 -0.000002 -0.000001 0.000001 0.000000 0.000001 -0.000000 -0.000000 
9.400738 76.612335 2.726011 -23.499971 23.981878 18.793571 -0.000001 0.000001 0.000002 -4.146606 16.501459 10.966411 82.852059 -7.416634 -0.686421 -16.146099 2.506004 -9.040308 -0.000001 -0.000000 0.000000 0.000001 -0.000002 0.000001 -45.901146 -7.130437 12.223020 42.089514 4.981703 -0.909871 31.470780 -7.015605 -7.123177 -0.000000 0.000002 -0.000000 -0.000002 0.000001 0.000003 16.664183 -11.422615 2.707009 2.207821 -3.132566 0.104209 2.222478 -3.117275 0.188814 0.835317 0.402505 -0.301378 0.835324 0.402494 -0.301383 -0.000000 -0.000000 0.000001 0.835461 0.402490 -0.301375 0.835173 0.402522 -0.301385 -0.000000 0.000000 -0.000001 -0.000000 -0.000000 0.000001 2.445335 -4.045564 -0.122274 26.486531 17.683020 -17.459403 0.000015 -61.185210 0.000021 28.657886 -2.434358 -4.544860 1.181951 -6.506396 5.296888 8.107828 21.400470 4.521555 0.000000 0.000003 0.000001 0.319581 -2.835822 -1.114277 0.405501 2.143491 -21.422195 0.000001 0.000000 -0.000000 -0.688391 0.455751 -15.705448 0.361428 2.027709 -20.211802 -0.000000 -0.000001 -0.000002 0.862863 5.616685 -19.462334 0.713291 2.803408 -28.544670 -0.000003 -0.000001 0.000002 2.018102 15.767254 -21.619816 0.840117 3.024670 -31.039361 0.000001 -0.000007 -0.000002 0.000000 0.000001 -0.000000 0.000000 0.000001 -0.000000 -0.000000 0.000001 0.000000 -0.000002 -0.000002 0.000002 -0.000002 -0.000003 0.000002 -0.000002 -0.000002 0.000002 -0.000002 -0.000003 0.000001 -0.068445 -5.331236 0.443551 17.874086 -14.691281 36.679137 0.000000 40.818662 0.000013 22.236244 -0.225975 12.723715 -1.096854 7.989333 -6.098431 8.926871 -31.894402 -5.850429 0.000003 -0.000001 0.000001 0.396551 2.134950 9.186499 0.915919 -2.775471 36.520513 0.000001 0.000000 0.000001 -0.979573 -1.043206 24.624861 0.960944 -2.835192 37.440365 -0.000002 -0.000001 0.000002 1.189677 -5.613877 27.388825 1.794948 -3.675340 52.047500 -0.000000 0.000002 0.000001 2.034413 -15.551108 29.713976 1.974363 -3.808173 54.796330 0.000000 0.000003 0.000001 0.000002 0.000000 -0.000002 0.000003 -0.000000 -0.000000 0.000002 -0.000000 -0.000001 0.000001 0.000000 0.000000 0.000001 0.000000 -0.000001 0.000001 0.000000 0.000000 0.000001 -0.000000 0.000000 -0.000000 0.000000 0.000000 -0.000000 0.000000 0.000000 -0.000000 0.000000 0.000000 -0.000000 0.000000 0.000000 -0.000000 0.000000 0.000000 -0.000000 0.000000 0.000000 -0.000000 0.000000 0.000000 0.000000 0.000001 0.000000 -0.000001 0.000001 0.000002 
10.324091 81.091911 1.688856 -19.693198 24.546127 15.082524 -0.000000 -0.000001 -0.000001 -1.216352 17.759040 7.170205 72.725225 -4.723514 -1.284813 -20.132981 1.539821 -5.061145 -0.000001 -0.000003 0.000000 0.000002 -0.000002 -0.000000 -41.082963 -4.403842 11.933811 32.461297 6.139990 -1.592973 31.767910 -4.454588 5.182335 -0.000000 -0.000001 0.000000 0.000001 0.000000 -0.000002 18.920686 -10.705638 2.503067 2.792602 -2.972070 0.128155 2.807953 -2.956683 0.226462 0.550183 0.164888 -0.466660 0.550180 0.164891 -0.466659 -0.000000 0.000001 -0.000001 0.550110 0.164894 -0.466662 0.550255 0.164892 -0.466661 0.000001 0.000000 -0.000000 -0.000000 0.000001 -0.000000 2.193023 -7.282904 -7.491023 24.854572 17.161257 -15.999652 -0.000016 -62.716054 -0.000010 26.421641 -1.737542 10.063390 -0.838054 -9.373477 5.471818 8.440168 25.390525 4.895669 -0.000001 -0.000001 -0.000006 0.312329 -2.771125 -0.901496 0.242258 1.668869 -16.517831 0.000000 -0.000002 0.000001 -0.685373 0.581992 -16.204342 0.261029 1.730845 -17.150344 -0.000000 0.000002 0.000000 0.825747 5.548812 -18.937869 0.837212 3.019821 -30.983951 0.000001 -0.000001 0.000001 1.906719 15.539186 -21.048910 0.985793 3.254151 -33.698873 0.000002 -0.000003 0.000000 -0.000003 0.000003 -0.000000 -0.000003 0.000003 -0.000000 -0.000003 0.000003 0.000000 -0.000000 -0.000002 -0.000001 -0.000000 -0.000002 0.000000 -0.000000 -0.000002 -0.000001 -0.000002 -0.000003 -0.000000 0.503239 -2.858951 1.342306 13.951869 -6.713299 45.829620 -0.000004 42.204869 0.000005 17.499230 -8.915003 13.968283 -3.321528 10.238752 -6.750950 9.321150 -38.719557 -6.443542 -0.000004 -0.000004 -0.000001 0.454411 1.764772 12.621693 1.016597 -2.906349 38.551483 -0.000000 -0.000000 -0.000002 -1.005598 -1.573097 28.966668 1.191253 -3.112616 41.877088 0.000000 -0.000002 0.000004 1.353861 -5.764929 30.436166 2.590622 -4.174447 63.632119 0.000000 -0.000001 0.000001 2.028054 -15.571265 32.719140 2.814285 -4.277758 66.666949 0.000001 -0.000002 -0.000001 -0.000001 -0.000000 -0.000000 -0.000003 -0.000000 -0.000001 -0.000002 0.000000 0.000001 0.000002 0.000004 0.000001 0.000001 0.000004 0.000003 0.000002 0.000004 0.000001 0.000001 0.000004 0.000005 0.000001 -0.000000 0.000000 0.000001 -0.000000 0.000000 0.000001 -0.000000 0.000000 0.000001 -0.000000 0.000000 0.000001 -0.000000 0.000000 0.000001 -0.000000 0.000000 0.000001 -0.000000 0.000000 -0.000000 -0.000000 -0.000001 -0.000000 -0.000001 -0.000001 
